<svg xmlns="http://www.w3.org/2000/svg" version="1.1" xmlns:xlink="http://www.w3.org/1999/xlink" xmlns:svgjs="http://svgjs.com/svgjs" width="118" height="118"><svg viewBox="0 0 110.593 118.743" xmlns="http://www.w3.org/2000/svg">
  <g fill="none" fill-rule="evenodd" transform="matrix(1, 0, 0, 1, -45.116447, -30.769968)">
    <g fill="#010604">
      <g>
        <g>
          <path d="M 78.97 64.109 C 76.996 61.976 73.74 61.411 71.116 62.925 C 68.071 64.683 67.028 68.575 68.786 71.619 C 69.708 73.216 71.218 74.263 72.886 74.642 L 72.883 88.364 C 70.048 89.009 67.932 91.541 67.932 94.569 C 67.932 98.084 70.782 100.934 74.3 100.934 C 77.818 100.934 80.668 98.084 80.668 94.569 C 80.668 91.542 78.554 89.009 75.72 88.364 L 75.724 74.642 C 76.328 74.502 76.921 74.274 77.485 73.949 C 80.106 72.436 81.245 69.344 80.39 66.569 L 92.272 59.709 C 94.249 61.833 97.497 62.394 100.118 60.881 C 103.163 59.124 104.208 55.231 102.448 52.187 C 100.689 49.143 96.794 48.1 93.748 49.858 C 91.123 51.373 89.986 54.473 90.848 57.251 L 78.97 64.109 Z M 27.593 88.363 C 24.76 89.008 22.645 91.541 22.645 94.568 C 22.645 98.083 25.496 100.933 29.012 100.933 C 32.53 100.933 35.382 98.083 35.382 94.568 C 35.382 91.54 33.266 89.008 30.431 88.363 L 30.427 74.642 C 32.095 74.262 33.607 73.217 34.529 71.619 C 36.289 68.576 35.244 64.683 32.198 62.925 C 29.574 61.411 26.32 61.976 24.345 64.109 L 12.457 57.244 C 13.316 54.469 12.177 51.372 9.555 49.858 C 6.508 48.1 2.615 49.143 0.855 52.187 C -0.903 55.231 0.14 59.124 3.185 60.881 C 5.807 62.395 9.059 61.833 11.035 59.705 L 22.925 66.569 C 22.07 69.344 23.209 72.436 25.831 73.949 C 26.394 74.274 26.986 74.503 27.588 74.642 L 27.593 88.363 L 27.593 88.363 Z M 35.1 18.045 L 46.99 24.9 C 48.152 23.648 49.813 22.865 51.657 22.865 C 53.501 22.865 55.161 23.648 56.324 24.9 L 68.213 18.045 C 68.031 17.452 67.933 16.824 67.933 16.172 C 67.933 12.657 70.783 9.807 74.3 9.807 C 77.818 9.807 80.67 12.657 80.67 16.172 C 80.67 19.687 77.818 22.537 74.3 22.537 C 72.457 22.537 70.796 21.754 69.633 20.502 L 57.745 27.357 C 57.927 27.949 58.025 28.579 58.025 29.231 C 58.025 32.745 55.174 35.594 51.657 35.594 C 48.14 35.594 45.289 32.745 45.289 29.231 C 45.289 28.579 45.386 27.949 45.569 27.357 L 33.68 20.502 C 32.518 21.753 30.857 22.537 29.013 22.537 C 25.495 22.537 22.645 19.687 22.645 16.172 C 22.645 12.657 25.495 9.807 29.013 9.807 C 32.53 9.807 35.38 12.657 35.38 16.172 C 35.38 16.824 35.283 17.452 35.1 18.045 L 35.1 18.045 Z M 70.263 42.295 C 70.263 40.071 72.065 38.269 74.288 38.269 C 76.512 38.269 78.314 40.071 78.314 42.294 C 78.314 44.516 76.512 46.318 74.288 46.318 C 72.065 46.318 70.263 44.516 70.263 42.294 L 70.263 42.295 Z M 96.934 22.875 C 100.45 22.875 103.301 25.724 103.301 29.239 C 103.301 32.754 100.451 35.603 96.934 35.603 C 93.416 35.603 90.565 32.753 90.565 29.239 C 90.565 25.724 93.416 22.875 96.935 22.875 L 96.934 22.875 Z M 98.614 78.592 C 100.223 79.52 100.774 81.575 99.844 83.182 C 98.916 84.789 96.859 85.34 95.253 84.412 C 93.643 83.484 93.093 81.429 94.022 79.822 C 94.95 78.215 97.006 77.664 98.614 78.592 L 98.614 78.592 Z M 61.341 55.37 C 61.341 50.023 57.006 45.69 51.657 45.69 C 46.307 45.69 41.971 50.023 41.971 55.37 C 41.971 60.716 46.306 65.049 51.657 65.049 C 57.006 65.049 61.341 60.716 61.341 55.369 L 61.341 55.37 Z M 46.143 110.815 C 47.902 113.86 51.796 114.902 54.841 113.145 C 57.887 111.387 58.931 107.496 57.171 104.452 C 55.414 101.408 51.52 100.366 48.474 102.123 C 45.429 103.88 44.384 107.771 46.144 110.815 L 46.143 110.815 Z M 49.635 78.023 C 47.708 79.134 47.048 81.595 48.16 83.518 C 49.272 85.444 51.734 86.103 53.661 84.991 C 55.586 83.881 56.246 81.42 55.135 79.495 C 54.023 77.571 51.56 76.911 49.635 78.023 L 49.635 78.023 Z M 6.369 22.875 C 2.852 22.875 0.001 25.724 0.001 29.239 C 0.001 32.754 2.851 35.603 6.369 35.603 C 9.886 35.603 12.736 32.753 12.736 29.239 C 12.736 25.724 9.886 22.875 6.369 22.875 L 6.369 22.875 Z M 33.039 42.295 C 33.039 40.071 31.236 38.269 29.013 38.269 C 26.789 38.269 24.987 40.071 24.987 42.294 C 24.987 44.516 26.789 46.318 29.013 46.318 C 31.236 46.318 33.04 44.516 33.04 42.294 L 33.039 42.295 Z M 4.69 78.591 C 3.08 79.519 2.53 81.574 3.458 83.181 C 4.388 84.788 6.443 85.339 8.052 84.411 C 9.66 83.483 10.21 81.428 9.282 79.821 C 8.353 78.214 6.297 77.663 4.689 78.591 L 4.69 78.591 Z M 51.656 0 C 53.373 0 54.763 1.391 54.763 3.106 C 54.763 4.821 53.373 6.211 51.656 6.211 C 49.941 6.211 48.549 4.821 48.549 3.106 C 48.549 1.391 49.942 0 51.657 0 L 51.656 0 Z" transform="translate(-437.000000, -775.000000) translate(437.000000, 775.000000) translate(48.000000, 33.000000)"></path>
        </g>
      </g>
    </g>
  </g>
</svg><style>@media (prefers-color-scheme: light) { :root { filter: none; } }
@media (prefers-color-scheme: dark) { :root { filter: invert(100%); } }
</style></svg>
