<svg class="header_logo" viewBox="0 0 71 78" xmlns="http://www.w3.org/2000/svg">
  <path d="M54.277 43.864a4.394 4.394 0 0 0-5.399-.81 4.344 4.344 0 0 0-1.602 5.949 4.36 4.36 0 0 0 2.819 2.068l-.003 9.389a4.36 4.36 0 0 0-3.403 4.245c0 2.405 1.96 4.355 4.377 4.355 2.418 0 4.377-1.95 4.377-4.355a4.36 4.36 0 0 0-3.4-4.245l.002-9.39a4.397 4.397 0 0 0 1.21-.473 4.347 4.347 0 0 0 1.997-5.05l8.167-4.693a4.395 4.395 0 0 0 5.392.802 4.342 4.342 0 0 0 1.602-5.95 4.388 4.388 0 0 0-5.98-1.592 4.347 4.347 0 0 0-1.994 5.057l-8.162 4.693zM18.964 60.459a4.36 4.36 0 0 0-3.4 4.245c0 2.406 1.96 4.355 4.376 4.355 2.417 0 4.377-1.95 4.377-4.355a4.36 4.36 0 0 0-3.403-4.245l-.002-9.388a4.358 4.358 0 0 0 2.819-2.068 4.342 4.342 0 0 0-1.602-5.949 4.394 4.394 0 0 0-5.398.81l-8.17-4.697a4.346 4.346 0 0 0-1.995-5.053 4.39 4.39 0 0 0-5.98 1.593 4.344 4.344 0 0 0 1.603 5.949 4.394 4.394 0 0 0 5.395-.805l8.171 4.696a4.346 4.346 0 0 0 1.998 5.05c.387.222.794.379 1.208.474l.003 9.388zm5.16-48.112 8.172 4.69a4.372 4.372 0 0 1 3.208-1.393c1.267 0 2.408.536 3.208 1.393l8.17-4.69a4.344 4.344 0 0 1-.192-1.282c0-2.405 1.96-4.355 4.376-4.355 2.418 0 4.378 1.95 4.378 4.355 0 2.405-1.96 4.355-4.378 4.355a4.373 4.373 0 0 1-3.207-1.392l-8.171 4.69c.126.405.192.836.192 1.282 0 2.404-1.96 4.354-4.376 4.354-2.418 0-4.377-1.95-4.377-4.354 0-.446.067-.877.192-1.282l-8.17-4.69a4.375 4.375 0 0 1-3.208 1.392c-2.418 0-4.377-1.95-4.377-4.355 0-2.405 1.96-4.355 4.377-4.355s4.376 1.95 4.376 4.355c0 .446-.067.876-.192 1.282zm24.168 16.591a2.76 2.76 0 0 1 2.766-2.754 2.76 2.76 0 0 1 2.768 2.754 2.76 2.76 0 0 1-2.768 2.753 2.76 2.76 0 0 1-2.766-2.753zm18.331-13.286c2.417 0 4.376 1.949 4.376 4.353 0 2.405-1.96 4.355-4.376 4.355-2.418 0-4.377-1.95-4.377-4.355 0-2.404 1.96-4.353 4.377-4.353zm1.155 38.121a2.292 2.292 0 0 1 .845 3.141 2.317 2.317 0 0 1-3.156.842 2.292 2.292 0 0 1-.846-3.141 2.317 2.317 0 0 1 3.157-.842zM42.16 37.885c0-3.658-2.98-6.622-6.656-6.622-3.678 0-6.657 2.964-6.657 6.622s2.98 6.623 6.657 6.623c3.676 0 6.656-2.965 6.656-6.623zM31.714 75.822a4.389 4.389 0 0 0 5.978 1.594 4.342 4.342 0 0 0 1.602-5.948 4.387 4.387 0 0 0-5.978-1.594 4.341 4.341 0 0 0-1.602 5.948zm2.4-22.437a2.745 2.745 0 0 0-1.014 3.76 2.775 2.775 0 0 0 3.781 1.008 2.746 2.746 0 0 0 1.013-3.76 2.775 2.775 0 0 0-3.78-1.008zM4.378 15.652C1.96 15.652 0 17.6 0 20.005 0 22.41 1.96 24.36 4.378 24.36c2.417 0 4.376-1.95 4.376-4.355-.001-2.404-1.96-4.353-4.376-4.353zm18.33 13.286a2.76 2.76 0 0 0-2.767-2.754 2.76 2.76 0 0 0-2.767 2.754 2.76 2.76 0 0 0 2.767 2.753 2.76 2.76 0 0 0 2.767-2.753zM3.222 53.773a2.293 2.293 0 0 0-.846 3.141 2.318 2.318 0 0 0 3.157.842 2.293 2.293 0 0 0 .845-3.141 2.317 2.317 0 0 0-3.156-.842zM35.504 0a2.13 2.13 0 0 1 2.136 2.125 2.13 2.13 0 0 1-2.136 2.125 2.13 2.13 0 0 1-2.136-2.125C33.368.952 34.325 0 35.504 0z" fill-rule="evenodd"/>
</svg>