<?xml version="1.0" standalone="no"?>
<!DOCTYPE svg PUBLIC "-//W3C//DTD SVG 20010904//EN"
 "http://www.w3.org/TR/2001/REC-SVG-20010904/DTD/svg10.dtd">
<svg version="1.0" xmlns="http://www.w3.org/2000/svg"
 width="700.000000pt" height="700.000000pt" viewBox="0 0 700.000000 700.000000"
 preserveAspectRatio="xMidYMid meet">
<metadata>
Created by potrace 1.14, written by Peter Selinger 2001-2017
</metadata>
<g transform="translate(0.000000,700.000000) scale(0.100000,-0.100000)"
fill="#000000" stroke="none">
<path d="M3408 6863 c-14 -2 -47 -22 -72 -44 -77 -68 -85 -171 -19 -250 107
-126 310 -57 319 109 3 54 -16 101 -56 138 -47 45 -96 58 -172 47z"/>
<path d="M2034 6281 c-191 -48 -317 -240 -282 -432 21 -115 105 -224 214 -275
52 -25 71 -28 154 -28 81 0 103 4 151 26 30 14 71 39 91 57 l35 31 194 -113
c107 -61 264 -152 350 -202 155 -88 156 -89 148 -117 -4 -16 -7 -62 -5 -103 2
-59 9 -86 34 -138 132 -268 497 -290 656 -39 48 77 69 201 47 277 -9 34 -48 7
329 223 69 40 132 76 140 82 8 5 35 21 60 35 25 14 72 40 104 59 l59 34 46
-36 c80 -61 124 -76 231 -76 83 0 102 3 150 27 73 35 131 86 167 145 160 261
-39 592 -342 569 -229 -17 -384 -222 -341 -451 6 -34 6 -34 -61 -72 -38 -20
-190 -108 -339 -194 -284 -164 -304 -175 -304 -161 0 18 -110 81 -166 96 -129
33 -242 8 -341 -77 l-33 -27 -181 104 c-99 58 -183 105 -186 105 -2 0 -23 13
-46 29 -23 15 -47 30 -52 32 -6 2 -61 33 -123 69 -111 64 -113 65 -106 95 19
81 2 197 -39 265 -50 83 -116 135 -227 177 -31 12 -144 14 -186 4z"/>
<path d="M685 5506 c-175 -55 -278 -198 -271 -377 5 -142 84 -260 216 -323 58
-27 75 -31 155 -31 80 0 97 3 155 31 81 38 140 96 182 177 30 58 32 69 32 162
0 93 -2 104 -32 163 -66 128 -182 203 -321 208 -42 1 -94 -3 -116 -10z"/>
<path d="M6025 5506 c-131 -41 -221 -131 -261 -258 -7 -21 -12 -68 -12 -105 0
-197 150 -355 350 -370 156 -11 290 69 361 217 29 58 32 75 32 155 0 81 -3 97
-32 155 -34 72 -71 114 -137 160 -79 54 -212 74 -301 46z"/>
<path d="M2019 4589 c-165 -84 -179 -313 -26 -413 65 -41 168 -47 236 -12 174
91 165 348 -16 428 -53 24 -146 22 -194 -3z"/>
<path d="M4718 4599 c-10 -5 -18 -7 -18 -4 0 10 -63 -37 -93 -70 -54 -60 -68
-172 -32 -249 39 -81 106 -126 200 -133 138 -11 247 91 249 232 1 95 -52 176
-139 216 -44 20 -139 25 -167 8z"/>
<path d="M3377 4168 c-399 -53 -619 -508 -412 -853 193 -322 626 -376 891
-111 195 195 224 482 73 718 -39 60 -139 152 -200 183 -110 56 -235 79 -352
63z"/>
<path d="M683 3965 c-221 -67 -333 -311 -237 -515 106 -226 384 -288 584 -130
l35 28 205 -120 c113 -66 228 -132 255 -147 28 -16 92 -52 142 -82 l93 -53 -6
-40 c-3 -23 -7 -50 -9 -62 -5 -33 15 -124 37 -171 32 -69 101 -138 172 -172
34 -17 67 -31 72 -31 6 0 10 -152 10 -404 l0 -405 -45 -17 c-151 -57 -243
-191 -243 -356 0 -65 4 -87 30 -142 41 -87 100 -149 181 -189 60 -29 74 -32
161 -32 88 0 101 3 162 33 69 34 142 103 173 165 24 47 43 148 39 204 -13 150
-122 283 -269 327 -20 6 -20 14 -20 407 0 347 2 403 15 409 8 4 36 17 63 29
179 79 261 303 178 485 -53 118 -146 191 -274 218 -100 21 -230 -13 -309 -82
l-33 -29 -60 34 c-33 18 -188 108 -345 198 l-285 165 0 104 c0 95 -3 108 -31
169 -62 131 -183 211 -324 215 -41 1 -94 -4 -117 -11z"/>
<path d="M6037 3970 c-83 -21 -163 -76 -221 -153 -52 -69 -83 -230 -57 -299 8
-22 -7 -33 -341 -225 l-349 -202 -45 34 c-41 32 -77 51 -129 70 -11 4 -51 9
-88 11 -113 5 -206 -32 -285 -113 -141 -146 -141 -366 0 -519 36 -39 144 -104
173 -104 9 0 12 -99 12 -404 l0 -405 -46 -17 c-64 -24 -89 -41 -140 -93 -69
-71 -111 -180 -105 -272 10 -146 92 -266 224 -328 47 -22 68 -26 150 -26 81 0
103 4 150 26 234 109 298 402 130 593 -36 40 -110 89 -160 105 l-36 11 0 405
c0 273 4 405 11 405 27 0 120 54 163 94 93 87 136 226 108 352 -6 26 -3 32 26
47 69 37 148 83 160 95 7 7 15 12 20 12 4 0 72 38 152 85 80 47 147 85 149 85
3 0 44 24 93 53 l89 54 50 -37 c76 -57 149 -80 242 -77 143 5 264 85 327 217
28 58 31 75 31 155 0 82 -3 97 -32 156 -64 128 -178 207 -314 214 -41 2 -91 0
-112 -5z"/>
<path d="M3350 2273 c-63 -32 -95 -68 -118 -136 -67 -200 138 -374 333 -282
134 63 166 274 57 378 -71 68 -183 84 -272 40z"/>
<path d="M696 2237 c-63 -36 -99 -88 -104 -151 -6 -69 9 -113 53 -158 122
-125 337 -38 337 135 0 148 -161 246 -286 174z"/>
<path d="M6035 2239 c-178 -90 -118 -366 81 -370 143 -3 239 128 194 266 -14
42 -89 110 -131 119 -55 11 -103 6 -144 -15z"/>
<path d="M3379 891 c-106 -22 -209 -103 -259 -205 -127 -257 73 -553 360 -533
265 18 426 290 313 529 -45 93 -132 171 -225 199 -45 14 -145 19 -189 10z"/>
</g>
</svg>
