<svg xmlns="http://www.w3.org/2000/svg" width="24" height="22" viewBox="0 0 24 22">
    <g fill="none" fill-rule="evenodd">
        <g fill="#9BB1C8">
            <path d="M509.343 464.343c-3.124 3.124-3.124 8.19 0 11.314 3.124 3.124 8.19 3.124 11.314 0 3.124-3.124 3.124-8.19 0-11.314-3.124-3.124-8.19-3.124-11.314 0zm-1.414-1.414c3.905-3.905 10.237-3.905 14.142 0 3.905 3.905 3.905 10.237 0 14.142-3.905 3.905-10.237 3.905-14.142 0-3.905-3.905-3.905-10.237 0-14.142zM516 465v5.186l2.243 2.242-1.415 1.415-2.828-2.829V465h2zm7.293-6.121l2.828 2.828-1.414 1.414-2.828-2.828 1.414-1.414zm-16.586 0l1.414 1.414-2.828 2.828-1.414-1.414 2.828-2.828z" transform="translate(-503.000000, -458.000000)"/>
        </g>
    </g>
</svg>
