<svg xmlns="http://www.w3.org/2000/svg" width="678" height="180" viewBox="0 0 678 180">
    <g fill="none" fill-rule="evenodd">
        <g fill="#ffffff">
            <g>
                <g>
                    <path d="M182.774 73.689V53.118h-20.81v7.486h12.5v9.213c-1.49 1.133-3.248 2.03-5.272 2.719-2.024.674-4.202 1.012-6.529 1.012-2.514 0-4.783-.442-6.81-1.328-2.025-.886-3.77-2.122-5.236-3.685-1.469-1.563-2.596-3.417-3.386-5.574-.792-2.145-1.19-4.49-1.19-7.01 0-2.377.41-4.627 1.224-6.726.813-2.111 1.931-3.953 3.352-5.539 1.42-1.587 3.096-2.847 5.027-3.756 1.932-.909 4.016-1.364 6.25-1.364 1.536 0 2.944.13 4.226.384 1.279.258 2.455.608 3.527 1.05 1.07.443 2.093.992 3.072 1.645.978.652 1.932 1.377 2.861 2.168l5.448-6.505c-1.257-1.074-2.55-2.019-3.874-2.834-1.328-.817-2.737-1.505-4.227-2.065-1.49-.56-3.106-.991-4.852-1.294-1.747-.302-3.689-.455-5.831-.455-3.677 0-7.065.677-10.161 2.03-3.096 1.352-5.763 3.183-7.995 5.492-2.235 2.307-3.969 5.002-5.204 8.081-1.234 3.078-1.85 6.342-1.85 9.795 0 3.591.606 6.927 1.817 10.005 1.208 3.08 2.921 5.748 5.13 8.011 2.212 2.261 4.877 4.034 7.995 5.318 3.12 1.281 6.59 1.923 10.406 1.923 2.142 0 4.19-.198 6.147-.594 1.955-.396 3.782-.945 5.482-1.644 1.698-.7 3.28-1.516 4.75-2.45 1.465-.932 2.803-1.912 4.013-2.938zm48.272-42.54h-7.958l-21.51 49.328h8.799l5.027-11.825h23.115l4.96 11.825h9.077l-21.51-49.328zm4.332 29.876h-16.831l8.38-19.59 8.45 19.59zm37.379 19.452h34.217V72.71h-25.697V31.5h-8.52v48.977zm55.535 0h8.52V31.5h-8.52v48.977zm33.47 0h34.217V72.71h-25.697V31.5h-8.52v48.977zm91.22-48.977H416.81v48.977h36.522V72.71H425.33V59.627h24.511v-7.768h-24.511V39.266h27.653V31.5zm45.48 29.454L517.876 31.5h-9.847l-13.826 21.688L480.515 31.5H470.39l19.412 29.666v19.31h8.66V60.955zM582 55.919c0-3.452-.629-6.717-1.885-9.795-1.257-3.08-3.003-5.762-5.237-8.048-2.235-2.285-4.912-4.092-8.032-5.422-3.119-1.328-6.564-1.994-10.335-1.994-3.771 0-7.216.677-10.335 2.03-3.118 1.352-5.819 3.183-8.1 5.492-2.28 2.307-4.05 5.002-5.308 8.081-1.256 3.078-1.885 6.342-1.885 9.795 0 3.452.629 6.717 1.885 9.795 1.258 3.078 3.003 5.76 5.237 8.047 2.235 2.283 4.912 4.091 8.03 5.421 3.12 1.33 6.564 1.994 10.337 1.994 3.77 0 7.215-.675 10.335-2.03 3.118-1.351 5.82-3.182 8.1-5.491 2.28-2.308 4.05-5.004 5.308-8.082 1.256-3.078 1.885-6.344 1.885-9.794zm-9.008.139c0 2.377-.408 4.629-1.222 6.75-.814 2.122-1.945 3.966-3.388 5.529-1.442 1.563-3.177 2.797-5.201 3.708-2.026.909-4.249 1.365-6.67 1.365-2.42 0-4.656-.468-6.703-1.401-2.05-.931-3.805-2.192-5.274-3.778-1.466-1.586-2.606-3.438-3.42-5.561-.814-2.123-1.223-4.374-1.223-6.752 0-2.379.41-4.63 1.222-6.752.815-2.121 1.945-3.965 3.387-5.528 1.443-1.561 3.177-2.799 5.202-3.708 2.027-.909 4.25-1.364 6.67-1.364s4.655.465 6.703 1.4c2.048.933 3.807 2.191 5.274 3.777 1.466 1.585 2.607 3.44 3.421 5.562.814 2.123 1.222 4.374 1.222 6.753zM78.97 64.109c-1.974-2.133-5.23-2.698-7.854-1.184-3.045 1.758-4.088 5.65-2.33 8.694.922 1.597 2.432 2.644 4.1 3.023l-.003 13.722c-2.835.645-4.951 3.177-4.951 6.205 0 3.515 2.85 6.365 6.368 6.365 3.518 0 6.368-2.85 6.368-6.365 0-3.027-2.114-5.56-4.948-6.205l.004-13.722c.604-.14 1.197-.368 1.761-.693 2.621-1.513 3.76-4.605 2.905-7.38l11.882-6.86c1.977 2.124 5.225 2.685 7.846 1.172 3.045-1.757 4.09-5.65 2.33-8.694-1.759-3.044-5.654-4.087-8.7-2.329-2.625 1.515-3.762 4.615-2.9 7.393L78.97 64.109zM27.593 88.363c-2.833.645-4.948 3.178-4.948 6.205 0 3.515 2.851 6.365 6.367 6.365 3.518 0 6.37-2.85 6.37-6.365 0-3.028-2.116-5.56-4.951-6.205l-.004-13.721c1.668-.38 3.18-1.425 4.102-3.023 1.76-3.043.715-6.936-2.331-8.694-2.624-1.514-5.878-.949-7.853 1.184l-11.888-6.865c.859-2.775-.28-5.872-2.902-7.386-3.047-1.758-6.94-.715-8.7 2.329-1.758 3.044-.715 6.937 2.33 8.694 2.622 1.514 5.874.952 7.85-1.176l11.89 6.864c-.855 2.775.284 5.867 2.906 7.38.563.325 1.155.554 1.757.693l.005 13.721zM35.1 18.045L46.99 24.9c1.162-1.252 2.823-2.035 4.667-2.035 1.844 0 3.504.783 4.667 2.035l11.889-6.855c-.182-.593-.28-1.221-.28-1.873 0-3.515 2.85-6.365 6.367-6.365 3.518 0 6.37 2.85 6.37 6.365s-2.852 6.365-6.37 6.365c-1.843 0-3.504-.783-4.667-2.035l-11.888 6.855c.182.592.28 1.222.28 1.874 0 3.514-2.851 6.363-6.368 6.363-3.517 0-6.368-2.849-6.368-6.363 0-.652.097-1.282.28-1.874L33.68 20.502c-1.162 1.251-2.823 2.035-4.667 2.035-3.518 0-6.368-2.85-6.368-6.365s2.85-6.365 6.368-6.365c3.517 0 6.367 2.85 6.367 6.365 0 .652-.097 1.28-.28 1.873zm35.163 24.25c0-2.224 1.802-4.026 4.025-4.026 2.224 0 4.026 1.802 4.026 4.025 0 2.222-1.802 4.024-4.026 4.024-2.223 0-4.025-1.802-4.025-4.024zm26.671-19.42c3.516 0 6.367 2.849 6.367 6.364 0 3.515-2.85 6.364-6.367 6.364-3.518 0-6.369-2.85-6.369-6.364 0-3.515 2.851-6.364 6.37-6.364zm1.68 55.717c1.609.928 2.16 2.983 1.23 4.59-.928 1.607-2.985 2.158-4.591 1.23-1.61-.928-2.16-2.983-1.231-4.59.928-1.607 2.984-2.158 4.592-1.23zM61.341 55.37c0-5.347-4.335-9.68-9.684-9.68-5.35 0-9.686 4.333-9.686 9.68 0 5.346 4.335 9.679 9.686 9.679 5.349 0 9.684-4.333 9.684-9.68zm-15.198 55.445c1.759 3.045 5.653 4.087 8.698 2.33 3.046-1.758 4.09-5.649 2.33-8.693-1.757-3.044-5.651-4.086-8.697-2.329-3.045 1.757-4.09 5.648-2.33 8.692zm3.492-32.792c-1.927 1.111-2.587 3.572-1.475 5.495 1.112 1.926 3.574 2.585 5.501 1.473 1.925-1.11 2.585-3.571 1.474-5.496-1.112-1.924-3.575-2.584-5.5-1.472zM6.369 22.875c-3.517 0-6.368 2.849-6.368 6.364 0 3.515 2.85 6.364 6.368 6.364 3.517 0 6.367-2.85 6.367-6.364 0-3.515-2.85-6.364-6.367-6.364zm26.67 19.42c0-2.224-1.803-4.026-4.026-4.026-2.224 0-4.026 1.802-4.026 4.025 0 2.222 1.802 4.024 4.026 4.024 2.223 0 4.027-1.802 4.027-4.024zM4.69 78.591c-1.61.928-2.16 2.983-1.232 4.59.93 1.607 2.985 2.158 4.594 1.23 1.608-.928 2.158-2.983 1.23-4.59-.929-1.607-2.985-2.158-4.593-1.23zM51.656 0c1.717 0 3.107 1.391 3.107 3.106 0 1.715-1.39 3.105-3.107 3.105-1.715 0-3.107-1.39-3.107-3.105S49.942 0 51.657 0z" transform="translate(-437.000000, -775.000000) translate(437.000000, 775.000000) translate(48.000000, 33.000000)"/>
                </g>
            </g>
        </g>
    </g>
</svg>
